<?xml version="1.0" encoding="UTF-8" standalone="no"?>
<!DOCTYPE svg PUBLIC "-//W3C//DTD SVG 1.1//EN" "http://www.w3.org/Graphics/SVG/1.1/DTD/svg11.dtd">
<svg width="100%" height="100%" viewBox="0 0 217 37" version="1.1" xmlns="http://www.w3.org/2000/svg" xmlns:xlink="http://www.w3.org/1999/xlink" xml:space="preserve" xmlns:serif="http://www.serif.com/" style="fill-rule:evenodd;clip-rule:evenodd;stroke-linejoin:round;stroke-miterlimit:2;">
    <g transform="matrix(1,0,0,1,-171.316,-581.336)">
        <g transform="matrix(1,0,0,1,0,66.6029)">
            <g transform="matrix(1.30953,0,0,0.98515,-69.9896,-74.7692)">
                <path d="M221.15,598.389L221.15,635.269L184.269,635.269L184.269,598.389L221.15,598.389ZM216.568,604.479L188.851,604.479L188.851,629.179L216.568,629.179L216.568,604.479Z"/>
            </g>
            <g transform="matrix(1.30953,0,0,1.34526,-67.9759,-177.717)">
                <path d="M182.731,514.734L219.612,514.734L201.172,532.9L182.731,514.734ZM193.7,519.194C193.7,519.194 201.172,526.554 201.172,526.554C201.172,526.554 208.643,519.194 208.643,519.194L193.7,519.194Z"/>
            </g>
            <g transform="matrix(4.19398,0,0,4.19398,-507.484,-1456.74)">
                <g transform="matrix(1,0,0,1,1.66906,0)">
                    <path d="M174.279,470.095L174.279,478.735L178.023,478.735L178.023,472.975L176.587,470.095L174.279,470.095ZM176.583,473.314L176.583,477.295L175.719,477.295L175.719,471.582L176.583,473.314Z" style="fill-rule:nonzero;"/>
                </g>
                <g transform="matrix(1,0,0,1,1.66906,0)">
                    <path d="M178.983,478.735L180.423,478.735L180.423,471.535L181.287,471.535L181.287,478.735L182.727,478.735L182.727,471.535L183.591,471.535L183.591,478.735L185.031,478.735L185.031,470.095L178.983,470.095L178.983,478.735Z" style="fill-rule:nonzero;"/>
                </g>
                <g transform="matrix(1,0,0,1,1.66906,0)">
                    <path d="M188.658,473.695L189.735,471.535L189.735,470.095L188.295,470.095L188.295,471.196L187.863,472.062L187.431,471.196L187.431,470.095L185.991,470.095L185.991,471.535L187.068,473.695L185.991,475.855L185.991,478.735L187.431,478.735L187.431,476.194L187.863,475.328L188.295,476.194L188.295,478.735L189.735,478.735L189.735,475.855L188.658,473.695Z" style="fill-rule:nonzero;"/>
                </g>
                <path d="M194.175,478.735L195.615,478.735L195.615,471.535L196.479,471.535L196.479,478.735L197.919,478.735L197.919,470.095L194.175,470.095L194.175,478.735Z" style="fill-rule:nonzero;"/>
                <path d="M198.879,470.095L198.879,478.735L201.759,478.735L201.759,477.295L200.319,477.295L200.319,474.415L201.759,474.415L201.759,472.975L200.319,472.975L200.319,471.535L201.759,471.535L201.759,470.095L198.879,470.095Z" style="fill-rule:nonzero;"/>
                <path d="M207.327,477.295L206.463,477.295L206.463,470.095L205.023,470.095L205.023,477.295L204.159,477.295L204.159,470.095L202.719,470.095L202.719,478.735L208.767,478.735L208.767,470.095L207.327,470.095L207.327,477.295Z" style="fill-rule:nonzero;"/>
                <path d="M211.167,472.975L211.167,471.535L213.471,471.535L213.471,470.095L209.727,470.095L209.727,474.415L212.031,474.415L212.031,477.295L209.727,477.295L209.727,478.735L213.471,478.735L213.471,472.975L211.167,472.975Z" style="fill-rule:nonzero;"/>
            </g>
        </g>
    </g>
</svg>
